PathFileType	4	(X/Y/Z)	Run_200 02
DataRate	CameraRate	NumFrames	NumMarkers	Units	OrigDataRate	OrigDataStartFrame	OrigNumFrames
100	100	4	42	mm	100	131	128
Frame#	Time	RASI			LPSI			RPSI			RTH1			RTH2			RTH3			LTH1			LTH2			LTH3			RTB1			RTB2			RTB3			LTB1			LTB2			LTB3			RCAL			RTOE			RMT5			LCAL			LTOE			LMT5			LACR			RACR			C7			RUA1			RUA2			RUA3			RLEL			RMEL			LUA2			LUA3			LLEL			LMEL			RFAsuperior			RFAradius			RFAulna			LFAsuperior			LFAradius			LFAulna			LUA1			CLAV			LASI			
		X1	Y1	Z1	X2	Y2	Z2	X3	Y3	Z3	X4	Y4	Z4	X5	Y5	Z5	X6	Y6	Z6	X7	Y7	Z7	X8	Y8	Z8	X9	Y9	Z9	X10	Y10	Z10	X11	Y11	Z11	X12	Y12	Z12	X13	Y13	Z13	X14	Y14	Z14	X15	Y15	Z15	X16	Y16	Z16	X17	Y17	Z17	X18	Y18	Z18	X19	Y19	Z19	X20	Y20	Z20	X21	Y21	Z21	X22	Y22	Z22	X23	Y23	Z23	X24	Y24	Z24	X25	Y25	Z25	X26	Y26	Z26	X27	Y27	Z27	X28	Y28	Z28	X29	Y29	Z29	X30	Y30	Z30	X31	Y31	Z31	X32	Y32	Z32	X33	Y33	Z33	X34	Y34	Z34	X35	Y35	Z35	X36	Y36	Z36	X37	Y37	Z37	X38	Y38	Z38	X39	Y39	Z39	X40	Y40	Z40	X41	Y41	Z41	X42	Y42	Z42	

119	2.01	1241.975958	1056.74127	-195.07259	1074.284538	1105.748519	-368.913314	1069.055252	1103.646621	-275.568102	1176.753328	868.417085	-152.30156	1182.47547	763.464402	-178.519076	1081.10887	649.747596	-179.262598	1188.178387	908.012731	-508.775534	1273.07443	786.3086949999999	-492.176123	1219.726938	660.423334	-475.76127	979.510671	399.08089	-253.201502	879.607709	349.591535	-205.880248	844.036051	280.251684	-268.414888	1311.138758	390.829306	-402.160322	1279.412223	325.572959	-439.904847	1312.84069	253.191213	-383.63157	708.5685999999999	303.918108	-256.103168	809.5234819999999	95.86390299999999	-304.635091	782.31485	85.581622	-230.226125	1218.914702	98.293576	-354.89603	1456.156152	149.299815	-340.640887	1437.792124	107.124842	-421.127121	1157.697718	1598.754378	-473.509752	1245.72854	1580.833481	-161.757176	1141.389184	1606.45211	-304.553123	1220.324942	1460.091987	-63.654825	1155.703649	1455.287044	-43.279795	1172.656575	1386.832437	-21.960741	1141.14455	1309.641833	2.775648	1066.192916	1317.425038	-58.828263	978.382255	1518.258201	-473.316358	951.742424	1462.844059	-540.097652	900.017332	1404.286565	-545.419368	899.9609850000001	1390.019369	-452.144987	1210.478097	1310.202007	-53.826428	1295.578834	1320.681373	-203.610767	1301.273362	1252.02932	-181.064199	976.097123	1360.584944	-559.3060860000001	1150.452647	1321.639523	-522.669552	1122.05487	1257.461003	-537.319297	1046.004828	1542.774024	-529.971367	1257.540085	1522.208746	-304.6769	1245.006382	1063.191659	-442.244114	
120	2.02	1239.828678	1053.326008	-194.603714	1072.607812	1100.378205	-369.097229	1066.40809	1098.056165	-275.715595	1177.922666	863.66751	-152.761438	1185.766252	758.859221	-178.626281	1087.820707	642.743677	-179.122528	1188.04808	903.848695	-509.303452	1274.102246	783.5087140000001	-492.51997	1221.706684	657.016708	-474.271486	983.16628	394.59426	-251.162559	881.096477	350.754541	-203.020774	841.794045	282.712191	-264.819106	1309.425792	385.883003	-400.02354	1277.45232	320.785263	-437.933664	1309.090275	248.329971	-381.059359	706.591998	312.157646	-251.730374	800.580327	101.036654	-300.92937	772.535396	91.215614	-226.607622	1212.821392	96.010705	-352.745154	1449.917183	143.361756	-336.189255	1431.610142	100.337823	-416.761274	1160.165905	1592.923194	-475.329275	1245.718789	1574.570958	-161.439513	1142.482001	1601.408931	-305.56831	1216.928816	1453.92222	-63.592086	1151.926039	1449.629375	-44.303872	1167.961297	1380.797076	-22.976268	1135.312555	1304.130865	1.153195	1061.803237	1312.862345	-61.718456	980.899379	1510.20683	-478.592936	956.352438	1453.578316	-544.896577	905.489013	1394.54343	-550.645459	904.275113	1380.347943	-457.340775	1205.665601	1301.972082	-54.190641	1293.411598	1307.696233	-202.920651	1297.201636	1239.416643	-179.050847	982.322285	1351.683901	-563.475043	1156.530424	1314.59611	-524.327072	1128.984505	1250.120734	-539.572489	1049.614725	1534.864555	-534.033269	1258.28025	1516.353496	-304.69533	1244.107354	1059.615374	-442.754415	
121	2.03	1237.49014	1048.675543	-193.968395	1070.839942	1093.930293	-369.251391	1064.479399	1091.351245	-276.08514	1179.102088	857.955143	-152.880188	1189.253681	753.270594	-178.016485	1094.796104	634.8370640000001	-178.316836	1187.340289	898.887502	-509.266993	1274.986995	781.469303	-491.531568	1224.270215	653.234479	-473.126713	987.764311	389.690405	-248.515921	883.466369	351.774676	-199.919306	840.996236	285.066666	-261.11882	1306.946347	379.666099	-398.478486	1274.13143	315.021064	-436.366798	1303.538392	242.315044	-378.963994	705.5511	320.031616	-248.281594	794.414179	106.466649	-296.249561	765.763548	97.74915799999999	-221.891993	1203.511821	95.4158	-350.910863	1440.642127	133.234933	-330.885882	1421.71122	89.878184	-411.986821	1162.806855	1585.981031	-476.903831	1245.480413	1567.196154	-161.056991	1143.430809	1595.262239	-306.595615	1212.991391	1446.801345	-63.834034	1147.758349	1443.011755	-45.61858	1162.894668	1373.646473	-24.400101	1129.106323	1297.490918	-1.113324	1057.261208	1307.083751	-65.23443	983.709038	1500.833177	-484.239879	961.574361	1442.905476	-550.039679	911.672024	1383.445488	-556.350761	909.013301	1369.310077	-462.959178	1200.382867	1292.427304	-54.981645	1291.0504	1292.997325	-202.29851	1292.658028	1225.221971	-176.931714	989.226774	1341.396404	-567.933391	1163.095529	1306.029118	-525.975926	1136.362387	1241.323844	-541.817853	1053.723634	1525.825188	-538.191328	1258.921425	1509.365076	-304.642699	1243.125958	1055.317564	-443.302565	
122	2.04	1235.004029	1042.856273	-193.148692	1068.980118	1086.586434	-369.436595	1063.463731	1083.639171	-276.869847	1180.080516	851.337492	-152.678727	1192.839123	746.763602	-176.670188	1101.890689	626.163261	-176.887253	1186.319033	892.97556	-508.607231	1275.430043	779.321472	-488.914166	1226.849408	648.823954	-472.768795	993.311951	384.320614	-245.391455	886.8568320000001	352.458511	-196.78274	841.74617	287.122048	-257.497133	1303.96508	372.355075	-397.373981	1269.476203	308.530434	-434.909616	1296.392669	235.318967	-377.151932	705.866402	327.431655	-245.739716	790.711552	111.656042	-290.786231	761.618754	104.478027	-216.412557	1191.147669	96.07689499999999	-349.294831	1428.878798	119.280095	-325.825767	1408.554188	77.424164	-407.814734	1165.641035	1577.988283	-478.238905	1244.939356	1558.740631	-160.595673	1144.211831	1587.999461	-307.604363	1208.69635	1438.667349	-64.40501500000001	1143.304875	1435.428311	-47.198052	1157.512985	1365.419515	-26.200536	1122.610321	1289.77833	-3.854433	1052.525488	1300.169932	-69.241204	986.7892450000001	1490.170068	-490.23956	967.380481	1430.904739	-555.430931	918.541028	1371.05863	-562.483314	914.13721	1356.966714	-469.016734	1194.658204	1281.679059	-56.111394	1288.52055	1276.753746	-201.518549	1287.615243	1209.664971	-174.62336	996.7284110000001	1329.795173	-572.623593	1170.125775	1295.999089	-527.629024	1144.151117	1231.138104	-544.03616	1058.303298	1515.709677	-542.301562	1259.429137	1501.301586	-304.421423	1242.048329	1050.235056	-443.637258	
